<svg width="20" height="21" viewBox="0 0 20 21" fill="none" xmlns="http://www.w3.org/2000/svg">
<path fill-rule="evenodd" clip-rule="evenodd" d="M15.2198 7.24227V5.75682C15.2198 3.0113 12.8827 0.7856 9.99999 0.785601C7.11721 0.785601 4.78026 3.0113 4.78026 5.75681V7.24227H0V16.0236C0 18.6536 2.23857 20.7856 5 20.7856H15C17.7614 20.7856 20 18.6536 20 16.0236V7.24227H15.2198ZM13.7197 9.05835C13.7197 9.45285 14.0555 9.77265 14.4697 9.77265C14.884 9.77265 15.2198 9.45285 15.2198 9.05835V8.67086H18.5V16.0236C18.5 17.8645 16.933 19.357 15 19.357H5C3.067 19.357 1.5 17.8645 1.5 16.0236V8.67086H4.78026V9.05835C4.78026 9.45285 5.11605 9.77265 5.53026 9.77265C5.94448 9.77265 6.28026 9.45285 6.28026 9.05835V8.67086H13.7197V9.05835ZM6.28026 7.24227H13.7197V5.75682C13.7197 3.80027 12.0543 2.21419 9.99999 2.21419C7.94564 2.21419 6.28026 3.80027 6.28026 5.75681V7.24227Z" fill="white"/>
</svg>
