<svg width="20" height="19" viewBox="0 0 20 19" fill="none" xmlns="http://www.w3.org/2000/svg">
<path fill-rule="evenodd" clip-rule="evenodd" d="M11.382 1.0135C12.3236 0.391453 13.5839 -0.0919516 15.0702 0.15504C18.9291 0.796271 20.1358 4.17096 19.9894 6.31238C19.8646 8.92178 18.1358 11.3708 16.185 13.3363C14.2092 15.3271 11.8851 16.9418 10.3448 17.879L9.99936 18.0892L9.65528 17.8767C6.96354 16.2138 5.01483 14.5444 3.63549 13.1505C0.762503 10.247 0.055331 7.77409 0.00326939 6.29664C-0.0786213 3.97267 1.26088 0.581057 5.08202 0.130763C7.44853 -0.148113 9.1148 1.25904 9.99415 2.20627C10.3437 1.82732 10.8107 1.39095 11.382 1.0135ZM12.1096 2.14715C11.3496 2.64923 10.8008 3.29442 10.5321 3.65177L10.026 4.32471L9.49072 3.6754C8.85864 2.90862 7.4215 1.21697 5.23584 1.47454C2.35024 1.81459 1.26878 4.34772 1.33575 6.24829C1.3738 7.32816 1.90168 9.48886 4.57644 12.192C5.82778 13.4566 7.58677 14.9747 10.004 16.5056C11.4747 15.5818 13.5114 14.1237 15.2455 12.3765C17.1427 10.4648 18.5609 8.32388 18.6579 6.24054L18.6582 6.2325L18.6588 6.22448C18.776 4.55316 17.8368 1.98559 14.8548 1.49006C13.7901 1.31315 12.8638 1.64891 12.1096 2.14715Z" fill="white"/>
</svg>
