<svg width="145" height="30" viewBox="0 0 145 30" fill="none" xmlns="http://www.w3.org/2000/svg">
<path d="M5.88 9.82V14.26H13.656V17.38H5.88V23.5H1.992V6.7H14.688V9.82H5.88ZM23.2849 10.444L25.9009 11.86L24.7249 13.828L22.0849 12.268L22.1329 15.172H19.8769L19.9009 12.244L17.2609 13.828L16.1089 11.86L18.7249 10.444L16.1089 9.004L17.2609 7.036L19.9009 8.62L19.8769 5.692H22.1329L22.0849 8.62L24.7249 7.036L25.9009 9.004L23.2849 10.444ZM36.2351 23.788C34.5231 23.788 32.9711 23.42 31.5791 22.684C30.2031 21.932 29.1151 20.9 28.3151 19.588C27.5311 18.26 27.1391 16.764 27.1391 15.1C27.1391 13.436 27.5311 11.948 28.3151 10.636C29.1151 9.308 30.2031 8.276 31.5791 7.54C32.9711 6.788 34.5311 6.412 36.2591 6.412C37.7151 6.412 39.0271 6.668 40.1951 7.18C41.3791 7.692 42.3711 8.428 43.1711 9.388L40.6751 11.692C39.5391 10.38 38.1311 9.724 36.4511 9.724C35.4111 9.724 34.4831 9.956 33.6671 10.42C32.8511 10.868 32.2111 11.5 31.7471 12.316C31.2991 13.132 31.0751 14.06 31.0751 15.1C31.0751 16.14 31.2991 17.068 31.7471 17.884C32.2111 18.7 32.8511 19.34 33.6671 19.804C34.4831 20.252 35.4111 20.476 36.4511 20.476C38.1311 20.476 39.5391 19.812 40.6751 18.484L43.1711 20.788C42.3711 21.764 41.3791 22.508 40.1951 23.02C39.0111 23.532 37.6911 23.788 36.2351 23.788ZM51.9167 16.9L49.6607 19.252V23.5H45.7967V6.7H49.6607V14.548L57.1007 6.7H61.4207L54.4607 14.188L61.8287 23.5H57.2927L51.9167 16.9ZM68.7308 23.788C67.4028 23.788 66.1148 23.612 64.8668 23.26C63.6348 22.892 62.6428 22.42 61.8908 21.844L63.2108 18.916C63.9308 19.444 64.7868 19.868 65.7788 20.188C66.7708 20.508 67.7628 20.668 68.7548 20.668C69.8588 20.668 70.6748 20.508 71.2028 20.188C71.7308 19.852 71.9948 19.412 71.9948 18.868C71.9948 18.468 71.8348 18.14 71.5148 17.884C71.2108 17.612 70.8108 17.396 70.3148 17.236C69.8348 17.076 69.1788 16.9 68.3468 16.708C67.0668 16.404 66.0188 16.1 65.2028 15.796C64.3868 15.492 63.6828 15.004 63.0908 14.332C62.5148 13.66 62.2268 12.764 62.2268 11.644C62.2268 10.668 62.4908 9.788 63.0188 9.004C63.5468 8.204 64.3388 7.572 65.3948 7.108C66.4668 6.644 67.7708 6.412 69.3068 6.412C70.3788 6.412 71.4268 6.54 72.4508 6.796C73.4748 7.052 74.3708 7.42 75.1388 7.9L73.9388 10.852C72.3868 9.972 70.8348 9.532 69.2828 9.532C68.1948 9.532 67.3868 9.708 66.8588 10.06C66.3468 10.412 66.0908 10.876 66.0908 11.452C66.0908 12.028 66.3868 12.46 66.9788 12.748C67.5868 13.02 68.5068 13.292 69.7388 13.564C71.0188 13.868 72.0668 14.172 72.8828 14.476C73.6988 14.78 74.3948 15.26 74.9708 15.916C75.5628 16.572 75.8588 17.46 75.8588 18.58C75.8588 19.54 75.5868 20.42 75.0428 21.22C74.5148 22.004 73.7148 22.628 72.6428 23.092C71.5708 23.556 70.2668 23.788 68.7308 23.788ZM81.7611 9.868H76.3851V6.7H91.0251V9.868H85.6491V23.5H81.7611V9.868ZM101.019 23.788C99.2746 23.788 97.6986 23.412 96.2906 22.66C94.8986 21.908 93.8026 20.876 93.0026 19.564C92.2186 18.236 91.8266 16.748 91.8266 15.1C91.8266 13.452 92.2186 11.972 93.0026 10.66C93.8026 9.332 94.8986 8.292 96.2906 7.54C97.6986 6.788 99.2746 6.412 101.019 6.412C102.763 6.412 104.331 6.788 105.723 7.54C107.115 8.292 108.211 9.332 109.011 10.66C109.811 11.972 110.211 13.452 110.211 15.1C110.211 16.748 109.811 18.236 109.011 19.564C108.211 20.876 107.115 21.908 105.723 22.66C104.331 23.412 102.763 23.788 101.019 23.788ZM101.019 20.476C102.011 20.476 102.907 20.252 103.707 19.804C104.507 19.34 105.131 18.7 105.579 17.884C106.043 17.068 106.275 16.14 106.275 15.1C106.275 14.06 106.043 13.132 105.579 12.316C105.131 11.5 104.507 10.868 103.707 10.42C102.907 9.956 102.011 9.724 101.019 9.724C100.027 9.724 99.1306 9.956 98.3306 10.42C97.5306 10.868 96.8986 11.5 96.4346 12.316C95.9866 13.132 95.7626 14.06 95.7626 15.1C95.7626 16.14 95.9866 17.068 96.4346 17.884C96.8986 18.7 97.5306 19.34 98.3306 19.804C99.1306 20.252 100.027 20.476 101.019 20.476ZM123.837 23.5L120.597 18.82H120.405H117.021V23.5H113.133V6.7H120.405C121.893 6.7 123.181 6.948 124.269 7.444C125.373 7.94 126.221 8.644 126.813 9.556C127.405 10.468 127.701 11.548 127.701 12.796C127.701 14.044 127.397 15.124 126.789 16.036C126.197 16.932 125.349 17.62 124.245 18.1L128.013 23.5H123.837ZM123.765 12.796C123.765 11.852 123.461 11.132 122.853 10.636C122.245 10.124 121.357 9.868 120.189 9.868H117.021V15.724H120.189C121.357 15.724 122.245 15.468 122.853 14.956C123.461 14.444 123.765 13.724 123.765 12.796ZM143.789 20.38V23.5H130.781V6.7H143.477V9.82H134.645V13.468H142.445V16.492H134.645V20.38H143.789Z" fill="white"/>
</svg>
