<svg width="143" height="19" viewBox="0 0 143 19" fill="none" xmlns="http://www.w3.org/2000/svg">
<path d="M4.88 4.32V8.76H12.656V11.88H4.88V18H0.992V1.2H13.688V4.32H4.88ZM22.2849 4.944L24.9009 6.36L23.7249 8.328L21.0849 6.768L21.1329 9.672H18.8769L18.9009 6.744L16.2609 8.328L15.1089 6.36L17.7249 4.944L15.1089 3.504L16.2609 1.536L18.9009 3.12L18.8769 0.191999H21.1329L21.0849 3.12L23.7249 1.536L24.9009 3.504L22.2849 4.944ZM35.2351 18.288C33.5231 18.288 31.9711 17.92 30.5791 17.184C29.2031 16.432 28.1151 15.4 27.3151 14.088C26.5311 12.76 26.1391 11.264 26.1391 9.6C26.1391 7.936 26.5311 6.448 27.3151 5.136C28.1151 3.808 29.2031 2.776 30.5791 2.04C31.9711 1.288 33.5311 0.912 35.2591 0.912C36.7151 0.912 38.0271 1.168 39.1951 1.68C40.3791 2.192 41.3711 2.928 42.1711 3.888L39.6751 6.192C38.5391 4.88 37.1311 4.224 35.4511 4.224C34.4111 4.224 33.4831 4.456 32.6671 4.92C31.8511 5.368 31.2111 6 30.7471 6.816C30.2991 7.632 30.0751 8.56 30.0751 9.6C30.0751 10.64 30.2991 11.568 30.7471 12.384C31.2111 13.2 31.8511 13.84 32.6671 14.304C33.4831 14.752 34.4111 14.976 35.4511 14.976C37.1311 14.976 38.5391 14.312 39.6751 12.984L42.1711 15.288C41.3711 16.264 40.3791 17.008 39.1951 17.52C38.0111 18.032 36.6911 18.288 35.2351 18.288ZM50.9167 11.4L48.6607 13.752V18H44.7967V1.2H48.6607V9.048L56.1007 1.2H60.4207L53.4607 8.688L60.8287 18H56.2927L50.9167 11.4ZM67.7308 18.288C66.4028 18.288 65.1148 18.112 63.8668 17.76C62.6348 17.392 61.6428 16.92 60.8908 16.344L62.2108 13.416C62.9308 13.944 63.7868 14.368 64.7788 14.688C65.7708 15.008 66.7628 15.168 67.7548 15.168C68.8588 15.168 69.6748 15.008 70.2028 14.688C70.7308 14.352 70.9948 13.912 70.9948 13.368C70.9948 12.968 70.8348 12.64 70.5148 12.384C70.2108 12.112 69.8108 11.896 69.3148 11.736C68.8348 11.576 68.1788 11.4 67.3468 11.208C66.0668 10.904 65.0188 10.6 64.2028 10.296C63.3868 9.992 62.6828 9.504 62.0908 8.832C61.5148 8.16 61.2268 7.264 61.2268 6.144C61.2268 5.168 61.4908 4.288 62.0188 3.504C62.5468 2.704 63.3388 2.072 64.3948 1.608C65.4668 1.144 66.7708 0.912 68.3068 0.912C69.3788 0.912 70.4268 1.04 71.4508 1.296C72.4748 1.552 73.3708 1.92 74.1388 2.4L72.9388 5.352C71.3868 4.472 69.8348 4.032 68.2828 4.032C67.1948 4.032 66.3868 4.208 65.8588 4.56C65.3468 4.912 65.0908 5.376 65.0908 5.952C65.0908 6.528 65.3868 6.96 65.9788 7.248C66.5868 7.52 67.5068 7.792 68.7388 8.064C70.0188 8.368 71.0668 8.672 71.8828 8.976C72.6988 9.28 73.3948 9.76 73.9708 10.416C74.5628 11.072 74.8588 11.96 74.8588 13.08C74.8588 14.04 74.5868 14.92 74.0428 15.72C73.5148 16.504 72.7148 17.128 71.6428 17.592C70.5708 18.056 69.2668 18.288 67.7308 18.288ZM80.7611 4.368H75.3851V1.2H90.0251V4.368H84.6491V18H80.7611V4.368ZM100.019 18.288C98.2746 18.288 96.6986 17.912 95.2906 17.16C93.8986 16.408 92.8026 15.376 92.0026 14.064C91.2186 12.736 90.8266 11.248 90.8266 9.6C90.8266 7.952 91.2186 6.472 92.0026 5.16C92.8026 3.832 93.8986 2.792 95.2906 2.04C96.6986 1.288 98.2746 0.912 100.019 0.912C101.763 0.912 103.331 1.288 104.723 2.04C106.115 2.792 107.211 3.832 108.011 5.16C108.811 6.472 109.211 7.952 109.211 9.6C109.211 11.248 108.811 12.736 108.011 14.064C107.211 15.376 106.115 16.408 104.723 17.16C103.331 17.912 101.763 18.288 100.019 18.288ZM100.019 14.976C101.011 14.976 101.907 14.752 102.707 14.304C103.507 13.84 104.131 13.2 104.579 12.384C105.043 11.568 105.275 10.64 105.275 9.6C105.275 8.56 105.043 7.632 104.579 6.816C104.131 6 103.507 5.368 102.707 4.92C101.907 4.456 101.011 4.224 100.019 4.224C99.0266 4.224 98.1306 4.456 97.3306 4.92C96.5306 5.368 95.8986 6 95.4346 6.816C94.9866 7.632 94.7626 8.56 94.7626 9.6C94.7626 10.64 94.9866 11.568 95.4346 12.384C95.8986 13.2 96.5306 13.84 97.3306 14.304C98.1306 14.752 99.0266 14.976 100.019 14.976ZM122.837 18L119.597 13.32H119.405H116.021V18H112.133V1.2H119.405C120.893 1.2 122.181 1.448 123.269 1.944C124.373 2.44 125.221 3.144 125.813 4.056C126.405 4.968 126.701 6.048 126.701 7.296C126.701 8.544 126.397 9.624 125.789 10.536C125.197 11.432 124.349 12.12 123.245 12.6L127.013 18H122.837ZM122.765 7.296C122.765 6.352 122.461 5.632 121.853 5.136C121.245 4.624 120.357 4.368 119.189 4.368H116.021V10.224H119.189C120.357 10.224 121.245 9.968 121.853 9.456C122.461 8.944 122.765 8.224 122.765 7.296ZM142.789 14.88V18H129.781V1.2H142.477V4.32H133.645V7.968H141.445V10.992H133.645V14.88H142.789Z" fill="#887569"/>
</svg>
