<svg width="20" height="21" viewBox="0 0 20 21" fill="none" xmlns="http://www.w3.org/2000/svg">
<path fill-rule="evenodd" clip-rule="evenodd" d="M13.5518 5.78555C13.5518 7.71853 11.9446 9.28551 9.962 9.28551C7.97946 9.28551 6.37229 7.71853 6.37229 5.78555C6.37229 3.85259 7.97946 2.2856 9.962 2.2856C11.9446 2.2856 13.5518 3.85259 13.5518 5.78555ZM15.0903 5.78555C15.0903 8.54695 12.7943 10.7855 9.962 10.7855C7.12978 10.7855 4.83381 8.54695 4.83381 5.78555C4.83381 3.02415 7.12978 0.785601 9.962 0.785601C12.7943 0.785601 15.0903 3.02415 15.0903 5.78555ZM8.97434 12.0357C4.01795 12.0357 0 15.9532 0 20.7856H1.53847C1.53847 16.7816 4.86763 13.5357 8.97434 13.5357H11.0256C15.1324 13.5357 18.4615 16.7816 18.4615 20.7856H20C20 15.9532 15.982 12.0357 11.0256 12.0357H8.97434Z" fill="white"/>
</svg>
